<?xml version="1.0" encoding="utf-8"?>
<!-- Generator: Adobe Illustrator 22.0.1, SVG Export Plug-In . SVG Version: 6.00 Build 0)  -->
<svg version="1.1" id="Star" xmlns="http://www.w3.org/2000/svg" xmlns:xlink="http://www.w3.org/1999/xlink" x="0px" y="0px"
	 viewBox="0 0 136 130.8" style="enable-background:new 0 0 136 130.8;" xml:space="preserve">
<polygon points="65.7,0 68.2,1.2 95.2,47 109.7,49.5 112.2,51.8 83.2,51.8 "/>
<polygon points="136,45.2 90.7,77.2 98.8,104.3 100.2,101.8 98.5,86.8 135.2,48.2 "/>
<polygon points="68.5,93.7 45,110 47.7,110.5 62.3,103.3 110.3,126.3 113.3,126.3 "/>
<polygon points="24,62 47.2,79.5 28.8,131 27.3,128.8 35.6,75.7 25,65 "/>
<polygon points="55.3,50.8 0,51.2 1.8,49.2 55.3,38.7 61.8,25.9 64.5,24.2 "/>
</svg>
